<svg width="37" height="70" viewBox="0 0 37 70" fill="none" xmlns="http://www.w3.org/2000/svg">
<path fill-rule="evenodd" clip-rule="evenodd" d="M0.214233 5.50347C0.214233 2.97874 2.26093 0.932037 4.78566 0.932037H32.2142C34.739 0.932037 36.7857 2.97874 36.7857 5.50347V64.932C36.7857 67.4568 34.739 69.5035 32.2142 69.5035H4.78566C2.26093 69.5035 0.214233 67.4568 0.214233 64.932V5.50347ZM20.5571 65.6178C20.5571 66.7539 19.6361 67.675 18.4999 67.675C17.3638 67.675 16.4428 66.7539 16.4428 65.6178C16.4428 64.4817 17.3638 63.5607 18.4999 63.5607C19.6361 63.5607 20.5571 64.4817 20.5571 65.6178ZM5.21719 3.21775H9.57004V4.13204C9.57004 4.88946 10.184 5.50347 10.9415 5.50347H25.1129C25.8703 5.50347 26.4843 4.88946 26.4843 4.13204V3.21775H31.7827C33.2834 3.21775 34.5 4.4343 34.5 5.93499V59.9291C34.5 61.4298 33.2834 62.6463 31.7827 62.6463H5.21718C3.7165 62.6463 2.49995 61.4298 2.49995 59.9291V5.93499C2.49995 4.4343 3.7165 3.21775 5.21719 3.21775Z" fill="white"/>
<path fill-rule="evenodd" clip-rule="evenodd" d="M9.57004 3.21775H5.21719C3.7165 3.21775 2.49995 4.4343 2.49995 5.93499V59.9291C2.49995 61.4298 3.7165 62.6463 5.21718 62.6463H31.7827C33.2834 62.6463 34.5 61.4298 34.5 59.9291V5.93499C34.5 4.4343 33.2834 3.21775 31.7827 3.21775H26.4843V4.13204C26.4843 4.88946 25.8703 5.50347 25.1129 5.50347H10.9415C10.184 5.50347 9.57004 4.88946 9.57004 4.13204V3.21775Z" fill="white" fill-opacity="0.35"/>
</svg>
